<svg width="177" height="34" viewBox="0 0 177 34" fill="none" xmlns="http://www.w3.org/2000/svg">
<path fill-rule="evenodd" clip-rule="evenodd" d="M16.8121 0.551166C11.754 1.32038 8.87409 2.6325 8.6107 4.28782C8.37837 5.74891 10.0133 6.89096 13.7471 7.87571C15.6725 8.38331 16.0616 8.41477 20.4901 8.41943C24.9961 8.4239 25.2783 8.40076 27.3354 7.85663C33.1182 6.32714 34.2325 4.00125 30.1094 2.06645C27.809 0.986917 25.4957 0.584248 21.2053 0.517069C19.1262 0.484596 17.1493 0.499818 16.8121 0.551166ZM57.3726 16.9615V27.8198H61.4673C68.3019 27.8198 70.3109 27.4445 72.0128 25.8503C73.6557 24.3112 74.0911 21.3454 72.9914 19.1865C72.3645 17.956 71.1742 17.0147 69.7702 16.6392L68.9639 16.4237L69.8722 15.9822C72.0361 14.9305 72.6978 13.9178 72.6978 11.6576C72.6978 9.53651 72.258 8.68531 70.3851 7.18058C70.2196 7.04764 69.5077 6.75071 68.8029 6.52097C67.649 6.14468 67.0185 6.10328 62.4473 6.10328H57.3726V16.9615ZM92.7226 16.86V27.632L94.5659 27.5738L96.409 27.5153V16.86V6.20476L94.5659 6.14631L92.7226 6.08806V16.86ZM67.0438 9.53773C68.4425 10.1708 68.7132 10.601 68.7132 12.192C68.7132 13.7465 68.4535 14.1851 67.1378 14.852C66.5131 15.1688 65.9285 15.2364 63.8174 15.2364H61.255V12.3274C61.255 10.7273 61.3163 9.3573 61.3913 9.28302C61.4661 9.20853 62.5746 9.14764 63.8545 9.14764C65.7148 9.14764 66.3544 9.22578 67.0438 9.53773ZM11.9081 9.86754C8.0688 10.5805 4.83091 12.3686 4.53421 13.9395C4.14475 16.0023 6.5367 17.7512 11.2951 18.8821C20.6348 21.1021 33.731 19.3737 36.1739 15.5987C37.6083 13.382 34.474 10.9148 28.8746 9.85374C28.0918 9.70537 27.3971 9.61729 27.3307 9.65788C27.008 9.85597 22.1332 10.3654 20.5602 10.3654C19.0749 10.3654 14.7708 9.93451 13.6449 9.6731C13.4763 9.63393 12.6947 9.72141 11.9081 9.86754ZM173.985 11.467C172.906 11.7552 171.702 12.7595 171.506 13.5356C171.278 14.4379 170.983 14.0235 170.983 12.8009V11.5831H169.144H167.305V19.5856V27.588L169.162 27.6531C170.183 27.6891 171.057 27.6801 171.103 27.6336C171.149 27.5872 171.187 25.2548 171.187 22.4505C171.187 17.5641 171.206 17.3147 171.647 16.4553C172.276 15.2283 173.445 14.6275 175.204 14.6275H176.5V13.0276C176.5 11.5399 176.468 11.4189 176.04 11.3051C175.416 11.1389 175.129 11.1616 173.985 11.467ZM80.5647 11.5578C78.883 11.9978 77.1553 13.3 76.4696 14.6437L75.9681 15.6269L76.7338 15.8276C77.1551 15.938 77.9808 16.09 78.5689 16.1655C79.5015 16.2851 79.6556 16.2538 79.7749 15.9218C80.2994 14.4609 82.7472 13.7385 84.4515 14.5417C85.1692 14.88 85.7752 15.8678 85.7752 16.6997C85.7752 17.6867 85.437 17.8381 82.1993 18.2988C77.7346 18.9345 76.3192 19.7017 75.6661 21.8402C75.2589 23.1732 75.2752 23.7533 75.7554 25.0082C76.2793 26.3779 77.0178 27.1165 78.3623 27.6162C80.8162 28.5281 83.7378 27.9499 85.1256 26.2775L85.7752 25.4947V26.5557V27.6168H87.6142H89.4532L89.4487 21.4773C89.4447 15.8274 89.4124 15.2682 89.0454 14.4649C88.5305 13.3377 87.7624 12.5965 86.4904 11.9992C85.6587 11.6085 85.0698 11.508 83.3232 11.4583C82.1432 11.4248 80.9018 11.4695 80.5647 11.5578ZM104.063 11.56C102.899 11.8628 101.608 12.6493 100.755 13.5758C99.8907 14.5134 99.5084 15.36 99.8124 15.662C99.9033 15.7523 100.646 15.9291 101.463 16.0549C102.905 16.2771 102.961 16.27 103.346 15.811C103.564 15.5508 103.746 15.2648 103.75 15.1757C103.764 14.8499 105.519 14.2303 106.441 14.2261C108.078 14.2183 109.269 15.2141 109.272 16.5919C109.274 17.174 108.849 17.8738 108.493 17.8754C108.417 17.8758 106.975 18.0906 105.289 18.3528C101.506 18.941 100.447 19.4155 99.5082 20.9431C98.8694 21.9827 98.8608 24.5532 99.4924 25.5872C100.163 26.6848 100.778 27.2052 101.907 27.6312C104.185 28.4913 107.257 27.9117 108.489 26.3893C108.84 25.9548 109.207 25.6477 109.303 25.7068C109.399 25.7658 109.478 26.2196 109.478 26.7155V27.6168H111.215H112.952V21.7195C112.952 18.0421 112.866 15.4826 112.723 14.92C112.448 13.835 111.381 12.7039 109.962 11.9921C109.12 11.5701 108.637 11.4861 106.822 11.447C105.642 11.4214 104.4 11.4723 104.063 11.56ZM122.838 11.6002C122.156 11.7966 120.512 13.1691 120.512 13.5415C120.512 13.6651 120.374 13.8796 120.206 14.0186C119.938 14.2388 119.899 14.099 119.899 12.9271V11.5831H118.058H116.216L116.27 19.6507L116.323 27.7183L118.111 27.7769L119.899 27.8356V22.7612C119.899 18.1606 119.938 17.587 120.312 16.6141C120.775 15.4091 121.266 14.9723 122.543 14.631C124.314 14.157 125.716 14.7781 126.441 16.3583C126.812 17.1679 126.847 17.6869 126.847 22.4302V27.6168H128.686H130.525V22.2043C130.525 15.9049 130.373 14.7083 129.406 13.386C128.395 12.0024 127.009 11.3749 125.019 11.3984C124.17 11.4086 123.188 11.4993 122.838 11.6002ZM138.288 11.5596C134.552 12.7633 132.547 16.5777 133.177 21.2833C133.736 25.45 136.308 27.7757 140.582 27.9783C142.149 28.0526 142.539 27.9961 143.813 27.5131C145.935 26.7073 147.532 24.8401 147.721 22.9421L147.791 22.2384L146.113 22.1796L144.434 22.1207L143.936 23.0977C143.56 23.8341 143.213 24.186 142.527 24.5266C139.607 25.9747 136.864 23.5879 136.864 19.6C136.864 17.0354 137.9 15.198 139.715 14.5419C140.66 14.2005 140.913 14.183 141.739 14.4022C142.868 14.702 143.534 15.2737 143.951 16.3019L144.259 17.063H146.044H147.828L147.692 16.2004C147.412 14.427 146.41 13.1197 144.522 12.0646C143.587 11.5423 143.299 11.4892 141.15 11.4439C139.858 11.4167 138.57 11.4689 138.288 11.5596ZM154.865 11.6032C153.388 12.0483 151.578 13.5125 150.792 14.8972C150.123 16.0748 149.528 18.3889 149.528 19.8092C149.528 20.8212 150.235 23.8483 150.562 24.2353C150.671 24.365 151.035 24.8576 151.369 25.3303C152.55 26.9988 154.95 28.0227 157.68 28.0227C159.338 28.0227 161.541 27.4469 162.004 26.8922C162.137 26.7325 162.354 26.602 162.486 26.602C162.618 26.602 162.952 26.3252 163.228 25.9868C163.503 25.6483 163.836 25.2523 163.966 25.1066C164.096 24.9609 164.295 24.5073 164.409 24.0983C164.601 23.4077 164.584 23.3545 164.172 23.3533C163.928 23.3525 163.13 23.2956 162.398 23.2268C161.143 23.1091 161.051 23.1298 160.806 23.585C160.663 23.8507 160.222 24.2881 159.827 24.557C159.226 24.9664 158.86 25.0459 157.581 25.0459C156.224 25.0459 155.957 24.9796 155.192 24.4513C154.215 23.7775 153.41 22.3917 153.41 21.3836V20.7162H159.016C165.531 20.7162 164.978 20.9626 164.662 18.1992C164.306 15.0833 162.998 13.0597 160.633 11.9645C159.851 11.6024 159.211 11.494 157.599 11.4504C156.475 11.42 155.245 11.4888 154.865 11.6032ZM158.988 14.5506C159.348 14.7314 159.813 15.0281 160.022 15.2102C160.55 15.6707 161.175 16.9453 161.175 17.5623V18.0778H157.292C153.521 18.0778 153.41 18.066 153.41 17.6638C153.41 16.6009 154.791 14.8723 155.964 14.466C156.892 14.1445 158.257 14.1826 158.988 14.5506ZM67.7778 18.5482C69.1644 19.2527 69.5306 19.8748 69.5306 21.5266C69.5306 22.7135 69.459 22.9916 69.0408 23.4338C68.2057 24.3169 67.579 24.4261 63.5538 24.39L61.255 24.3695V21.359C61.255 19.7031 61.3163 18.2874 61.3913 18.2132C61.4661 18.1387 62.7305 18.0804 64.2009 18.0835C66.5679 18.0885 66.9778 18.1417 67.7778 18.5482ZM85.7703 20.9699C85.7533 23.9668 83.8931 25.6209 81.0755 25.1444C80.0362 24.9686 79.0303 24.0596 79.035 23.3007C79.0444 21.7584 79.7994 21.2305 82.8565 20.6282C84.1808 20.3674 85.3794 20.1433 85.5198 20.1305C85.6884 20.1153 85.7736 20.4004 85.7703 20.9699ZM109.265 21.3759C109.255 22.8175 108.895 23.636 107.913 24.4492C106.743 25.4173 104.217 25.479 103.236 24.5633C102.345 23.732 102.457 22.1952 103.462 21.4658C103.859 21.1772 107.725 20.2482 109.018 20.1305C109.199 20.1143 109.271 20.48 109.265 21.3759ZM9.76254 20.9366C9.25681 21.0335 8.06145 21.3549 7.10618 21.6511C-4.2573 25.1734 -0.360428 31.5146 14.1982 33.1916C19.7294 33.8289 27.3043 33.452 32.0351 32.3045C37.5887 30.9575 40.9557 28.5601 40.5217 26.2623C40.3717 25.4673 38.9079 23.8568 37.8568 23.3299C37.5206 23.1613 37.0617 22.926 36.8369 22.8069C35.5768 22.1388 33.5275 21.4607 31.4723 21.0312C30.1388 20.7526 29.893 20.7641 27.2148 21.232C23.1259 21.946 17.8125 21.9427 13.6852 21.2236C12.0834 20.9446 10.7525 20.7262 10.7274 20.7386C10.7025 20.7507 10.2683 20.8398 9.76254 20.9366Z" fill="white"/>
</svg>
