<svg width="155" height="23" viewBox="0 0 155 23" fill="none" xmlns="http://www.w3.org/2000/svg">
<g clip-path="url(#clip0_102_831)">
<path d="M19.0376 3.91318V9.95484L16.581 11.5165L19.0376 13.0086V19.6135L14.5743 23H0V17.2582H11.1618V13.8059H6.76175V16.428H0V0H14.5743L19.0376 3.91318ZM11.1618 9.5233V6.20623H6.76175V9.5233H11.1618Z" fill="white"/>
<path d="M32.7368 0.0657959H40.6161V18.2859L36.1598 22.9963H25.7817L21.5152 18.8162V15.7624H32.7403V0.0657959H32.7368ZM29.2926 14.6689H21.5117V0.0657959H29.2926V14.6689Z" fill="white"/>
<path d="M50.9311 0.0657959V22.9963H43.5332V0.0657959H50.9311Z" fill="white"/>
<path d="M67.4028 14.5665V22.9963H54.041V0.0657959H62.2366V14.5665H67.4028Z" fill="white"/>
<path d="M89.1081 3.45238V19.5476L84.9295 23H70.067V7.99825H76.7303L76.762 15.6637H81.64L81.6083 7.16807H70.0635V0H84.926L89.1081 3.45238Z" fill="white"/>
<path d="M155 22.9963H146.421L143.103 16.0952V22.9963H135.639V0.0657959H143.103V11.5164H146.962V6.50609H144.122V0.0694511H151.106L154.613 3.55474V13.5425L151.295 16.0989L155 22.9963Z" fill="white"/>
<path d="M129.253 0.0621338H118.218L114.552 3.87657L112.373 6.14402L106.529 0.0621338H95.4935L91.4414 4.18012V18.8564L95.4935 22.9744H106.529L110.194 19.1599V19.1563L112.373 16.8998L114.552 19.1563V19.1599L118.218 22.9744H129.253L133.305 18.8564V4.18012L129.253 0.0621338ZM98.7549 11.4981V7.29603H103.148L107.211 11.5128L103.144 15.7331H98.7549V11.4981ZM125.995 11.5347V15.7368H121.606C121.63 15.7624 117.648 11.6261 117.539 11.5164L121.602 7.29969H125.995V11.5347Z" fill="url(#paint0_linear_102_831)"/>
</g>
<defs>
<linearGradient id="paint0_linear_102_831" x1="98.3908" y1="26.0675" x2="108.264" y2="-8.25787" gradientUnits="userSpaceOnUse">
<stop stop-color="#FF00FF"/>
<stop offset="1" stop-color="#20FFFF"/>
</linearGradient>
<clipPath id="clip0_102_831">
<rect width="155" height="23" fill="white"/>
</clipPath>
</defs>
</svg>
